<svg width="71" height="66" fill="none" xmlns="http://www.w3.org/2000/svg"><path d="m17.786 19.419-6.289-6.259 4.163-4.163 6.259 6.289-4.133 4.133ZM38.452 2v8.857h-5.904V2h5.904Zm21.05 11.16-6.288 6.259-4.133-4.133 6.259-6.289 4.163 4.163ZM13.358 30.048v5.904H4.5v-5.904h8.857Zm44.286 0H66.5v5.904h-8.857v-5.904ZM17.786 58.095h35.428A5.905 5.905 0 0 1 59.12 64H11.881a5.905 5.905 0 0 1 5.905-5.905ZM35.5 13.81a17.714 17.714 0 0 1 17.714 17.714v23.619H17.786v-23.62A17.714 17.714 0 0 1 35.5 13.81Z" fill="#03D6F3"/></svg>