<svg width="33" height="33" fill="none" xmlns="http://www.w3.org/2000/svg"><path d="M31.198.21H1.74a1.28 1.28 0 0 0-1.28 1.28v29.46c0 .708.572 1.28 1.28 1.28h29.46a1.28 1.28 0 0 0 1.28-1.28V1.49a1.28 1.28 0 0 0-1.28-1.28ZM9.956 27.496h-4.75V12.214h4.75v15.282ZM7.583 10.124a2.754 2.754 0 1 1 0-5.507 2.754 2.754 0 0 1 0 5.507Zm20.16 17.372h-4.746v-7.433c0-1.773-.032-4.05-2.47-4.05-2.47 0-2.85 1.928-2.85 3.922v7.56h-4.743V12.215h4.555v2.09h.064c.633-1.202 2.182-2.47 4.495-2.47 4.811 0 5.696 3.166 5.696 7.28v8.382Z" fill="#fff"/></svg>