<svg width="63" height="62" fill="none" xmlns="http://www.w3.org/2000/svg"><path d="M31.5 27.373a3.627 3.627 0 1 1 0 7.255 3.627 3.627 0 0 1 0-7.255ZM3.281 2.78C8.468-2.406 19.711-.084 31.5 7.641 43.288-.084 54.532-2.406 59.719 2.781c5.187 5.187 2.865 16.43-4.86 28.219 7.725 11.788 10.047 23.032 4.86 28.219-5.187 5.187-16.43 2.865-28.219-4.86-11.788 7.725-23.032 10.047-28.219 4.86C-1.906 54.032.416 42.789 8.141 31 .416 19.212-1.906 7.968 3.281 2.781ZM44.34 18.16a104.982 104.982 0 0 1 6.13 6.819c5.005-7.726 6.819-14.363 4.099-17.047-2.685-2.72-9.322-.907-17.048 4.098a104.982 104.982 0 0 1 6.819 6.13ZM18.66 43.84a104.982 104.982 0 0 1-6.13-6.819c-5.005 7.726-6.819 14.363-4.098 17.047 2.684 2.72 9.321.907 17.047-4.098a104.982 104.982 0 0 1-6.819-6.13ZM8.432 7.932c-2.72 2.684-.907 9.321 4.098 17.047a104.982 104.982 0 0 1 6.13-6.819 104.982 104.982 0 0 1 6.819-6.13C17.753 7.025 11.116 5.211 8.432 7.932ZM23.81 38.69c2.538 2.538 5.15 4.86 7.689 6.927a101.947 101.947 0 0 0 7.69-6.927c2.538-2.54 4.86-5.151 6.927-7.69a101.947 101.947 0 0 0-6.927-7.69 101.947 101.947 0 0 0-7.69-6.927 101.947 101.947 0 0 0-7.69 6.928A101.947 101.947 0 0 0 16.884 31a101.947 101.947 0 0 0 6.928 7.69Zm30.758 15.379c2.72-2.685.906-9.322-4.1-17.048a104.982 104.982 0 0 1-6.129 6.819 104.982 104.982 0 0 1-6.819 6.13c7.726 5.005 14.363 6.819 17.047 4.099Z" fill="#fff"/></svg>