<svg width="46" height="47" fill="none" xmlns="http://www.w3.org/2000/svg"><path d="M23 27.06c4.228 0 7.667-3.438 7.667-7.666S27.228 11.728 23 11.728s-7.667 3.438-7.667 7.666 3.439 7.667 7.667 7.667Zm0-11.5a3.837 3.837 0 0 1 3.833 3.834A3.837 3.837 0 0 1 23 23.228a3.837 3.837 0 0 1-3.833-3.834A3.837 3.837 0 0 1 23 15.561Z" fill="#fff"/><path d="M21.888 42.037a1.913 1.913 0 0 0 2.224 0c.582-.412 14.277-10.3 14.221-22.643C38.333 10.94 31.455 4.06 23 4.06c-8.454 0-15.333 6.879-15.333 15.323-.056 12.353 13.639 22.241 14.221 22.653ZM23 7.894c6.342 0 11.5 5.158 11.5 11.51.04 8.506-8.41 16.144-11.5 18.649-3.088-2.507-11.54-10.147-11.5-18.66 0-6.341 5.158-11.5 11.5-11.5Z" fill="#fff"/></svg>