<svg width="35" height="28" fill="none" xmlns="http://www.w3.org/2000/svg"><path d="M34.145 3.906a13.687 13.687 0 0 1-3.93 1.057 6.808 6.808 0 0 0 3.001-3.762 13.474 13.474 0 0 1-4.33 1.649A6.808 6.808 0 0 0 23.898.692a6.823 6.823 0 0 0-6.824 6.829c0 .528.064 1.057.168 1.565A19.396 19.396 0 0 1 3.169 1.94a6.777 6.777 0 0 0-.929 3.446 6.83 6.83 0 0 0 3.042 5.688 6.884 6.884 0 0 1-3.086-.868v.084a6.827 6.827 0 0 0 5.472 6.7c-.587.152-1.191.23-1.797.232-.445 0-.865-.044-1.29-.104a6.837 6.837 0 0 0 6.38 4.735 13.68 13.68 0 0 1-8.473 2.918c-.572 0-1.1-.02-1.649-.084a19.328 19.328 0 0 0 10.483 3.062c12.552 0 19.42-10.399 19.42-19.425 0-.296 0-.592-.02-.888a14.7 14.7 0 0 0 3.423-3.53Z" fill="#fff"/></svg>